# Blender 4.2.2 LTS
# www.blender.org
mtllib chair.mtl
o Cube
v 0.500000 0.063391 -0.500000
v 0.500000 -0.063391 -0.500000
v 0.500000 0.063391 0.500000
v 0.500000 -0.063391 0.500000
v -0.500000 0.063391 -0.500000
v -0.500000 -0.063391 -0.500000
v -0.500000 0.063391 0.500000
v -0.500000 -0.063391 0.500000
v -0.500000 -0.063391 -0.339809
v 0.500000 0.063391 -0.339809
v -0.500000 0.063391 -0.339809
v 0.500000 -0.063391 -0.339809
v -0.333623 1.151314 -0.339809
v -0.500000 0.994852 -0.339809
v -0.500000 0.994852 -0.500000
v -0.333623 1.151314 -0.500000
v 0.333623 1.151314 -0.500000
v 0.500000 0.994852 -0.500000
v 0.500000 0.994852 -0.339809
v 0.333623 1.151314 -0.339809
v -0.387743 -0.063391 -0.500000
v -0.387743 0.063391 0.500000
v -0.387743 -0.063391 0.500000
v -0.387743 0.063391 -0.500000
v -0.387743 -0.063391 -0.339809
v -0.387743 0.063391 -0.339809
v 0.365868 -0.063391 0.500000
v 0.365868 0.063391 -0.500000
v 0.365868 0.063391 -0.339809
v 0.365868 -0.063391 -0.500000
v 0.365868 0.063391 0.500000
v 0.365868 -0.063391 -0.339809
v -0.500000 -0.063391 0.383846
v 0.500000 0.063391 0.383846
v -0.500000 0.063391 0.383846
v 0.500000 -0.063391 0.383846
v -0.387743 -0.063391 0.383846
v -0.387743 0.063391 0.383846
v 0.365868 0.063391 0.383846
v 0.365868 -0.063391 0.383846
v -0.500000 -0.845722 0.383846
v -0.500000 -0.845722 0.500000
v -0.387743 -0.845722 -0.500000
v -0.500000 -0.845722 -0.500000
v 0.365868 -0.845722 0.500000
v 0.500000 -0.845722 0.500000
v 0.500000 -0.845722 -0.339809
v 0.500000 -0.845722 -0.500000
v -0.500000 -0.845722 -0.339809
v -0.387743 -0.845722 -0.339809
v -0.387743 -0.845722 0.500000
v -0.387743 -0.845722 0.383846
v 0.365868 -0.845722 -0.500000
v 0.365868 -0.845722 -0.339809
v 0.365868 -0.845722 0.383846
v 0.500000 -0.845722 0.383846
vn -0.0000 1.0000 -0.0000
vn -0.0000 -0.0000 1.0000
vn -1.0000 -0.0000 -0.0000
vn 1.0000 -0.0000 -0.0000
vn -0.0000 -0.0000 -1.0000
vn -0.6851 0.7285 -0.0000
vn 0.6851 0.7285 -0.0000
vn -0.0000 -1.0000 -0.0000
vt 0.846936 0.720961
vt 0.875000 0.720961
vt 0.875000 0.750000
vt 0.846936 0.750000
vt 0.375000 0.971936
vt 0.625000 0.971936
vt 0.625000 1.000000
vt 0.375000 1.000000
vt 0.375000 0.209952
vt 0.625000 0.209952
vt 0.625000 0.250000
vt 0.375000 0.250000
vt 0.375000 0.720961
vt 0.625000 0.720961
vt 0.625000 0.750000
vt 0.375000 0.750000
vt 0.375000 0.466467
vt 0.625000 0.466467
vt 0.625000 0.500000
vt 0.375000 0.500000
vt 0.625000 0.540048
vt 0.375000 0.540048
vt 0.341467 0.540048
vt 0.375000 0.029039
vt 0.625000 0.029039
vt 0.875000 0.540048
vt 0.846936 0.540048
vt 0.658533 0.540048
vt 0.666594 0.540048
vt 0.833406 0.540048
vt 0.875000 0.540048
vt 0.625000 0.278064
vt 0.625000 0.291594
vt 0.625000 0.458406
vt 0.666594 0.500000
vt 0.833406 0.500000
vt 0.153064 0.720961
vt 0.153064 0.750000
vt 0.375000 0.278064
vt 0.375000 0.783533
vt 0.625000 0.783533
vt 0.658533 0.720961
vt 0.658533 0.750000
vt 0.153064 0.500000
vt 0.341467 0.500000
vt 0.153064 0.540048
vt 0.341467 0.720961
vt 0.341467 0.750000
vt 0.125000 0.540048
vt 0.125000 0.720961
vt 0.375000 0.000000
vt 0.625000 0.000000
vt 0.125000 0.500000
vt 0.125000 0.750000
s 0
usemtl Material
f 38/1/1 35/2/1 7/3/1 22/4/1
f 23/5/2 22/6/2 7/7/2 8/8/2
f 9/9/3 11/10/3 5/11/3 6/12/3
f 23/5/2 8/8/2 42/8/2 51/5/2
f 36/13/4 34/14/4 3/15/4 4/16/4
f 30/17/5 28/18/5 1/19/5 2/20/5
f 2/20/4 1/19/4 10/21/4 12/22/4
f 12/22/2 32/23/2 54/23/2 47/22/2
f 33/24/3 35/25/3 11/10/3 9/9/3
f 10/21/4 1/19/4 18/19/4 19/21/4
f 11/26/2 26/27/2 29/28/2 10/21/2 19/21/2 20/29/2 13/30/2 14/31/2
f 1/19/5 28/18/5 24/32/5 5/11/5 15/11/5 16/33/5 17/34/5 18/19/5
f 17/35/1 16/36/1 13/30/1 20/29/1
f 13/10/6 16/11/6 15/11/6 14/10/6
f 17/35/7 20/29/7 19/21/7 18/19/7
f 5/11/3 11/10/3 14/10/3 15/11/3
f 37/37/4 23/38/4 51/38/4 52/37/4
f 6/12/5 5/11/5 24/32/5 21/39/5
f 9/9/3 6/12/3 44/12/3 49/9/3
f 27/40/2 31/41/2 22/6/2 23/5/2
f 39/42/1 38/1/1 22/4/1 31/43/1
f 34/14/1 39/42/1 31/43/1 3/15/1
f 4/16/2 3/15/2 31/41/2 27/40/2
f 21/44/8 30/45/8 32/23/8 25/46/8
f 21/39/5 24/32/5 28/18/5 30/17/5
f 37/37/8 40/47/8 27/48/8 23/38/8
f 25/46/8 32/23/8 40/47/8 37/37/8
f 10/21/1 29/28/1 39/42/1 34/14/1
f 29/28/1 26/27/1 38/1/1 39/42/1
f 9/49/8 25/46/8 37/37/8 33/50/8
f 8/51/3 7/52/3 35/25/3 33/24/3
f 12/22/4 10/21/4 34/14/4 36/13/4
f 32/23/8 12/22/8 36/13/8 40/47/8
f 26/27/1 11/26/1 35/2/1 38/1/1
f 55/47/8 56/13/8 46/16/8 45/48/8
f 53/45/8 48/20/8 47/22/8 54/23/8
f 44/53/8 43/44/8 50/46/8 49/49/8
f 41/50/8 52/37/8 51/38/8 42/54/8
f 36/13/4 4/16/4 46/16/4 56/13/4
f 8/51/3 33/24/3 41/24/3 42/51/3
f 33/50/5 37/37/5 52/37/5 41/50/5
f 4/16/2 27/40/2 45/40/2 46/16/2
f 6/12/5 21/39/5 43/39/5 44/12/5
f 32/23/3 30/45/3 53/45/3 54/23/3
f 25/46/2 9/49/2 49/49/2 50/46/2
f 21/44/4 25/46/4 50/46/4 43/44/4
f 27/48/3 40/47/3 55/47/3 45/48/3
f 40/47/5 36/13/5 56/13/5 55/47/5
f 2/20/4 12/22/4 47/22/4 48/20/4
f 30/17/5 2/20/5 48/20/5 53/17/5
