# Blender 4.2.2 LTS
# www.blender.org
mtllib outside_walls.mtl
o Cube.001
v -0.075509 -1.000000 0.075509
v -0.075509 5.380264 0.075509
v -0.075509 -1.000000 -0.075509
v -0.075509 5.380264 -0.075509
v 8.248977 -1.000000 0.075509
v 8.248976 5.380264 0.075509
v 8.370928 5.380264 2.961772
v 8.370928 -1.000000 2.961772
v 8.248977 -1.000000 2.961772
v 8.248976 5.380264 2.961772
v 8.248977 -1.000000 2.829890
v 8.248976 5.380264 2.829890
v 10.043932 5.380264 2.961772
v 10.043932 -1.000000 2.961772
v 0.102145 5.380264 0.075509
v 0.102145 -1.000000 0.075509
v -0.075509 5.380264 -11.727789
v -0.075509 -1.000000 -11.727789
v 0.102145 -1.000000 -11.727789
v 0.102145 5.380264 -11.727789
v -0.075509 5.380264 -11.531865
v -0.075509 -1.000000 -11.531865
v 1.456556 -1.000000 -11.727789
v 1.456556 5.380264 -11.727789
v 1.456556 -1.000000 -12.305507
v 1.456556 5.380264 -12.305507
v 1.456556 -1.000000 -14.799465
v 1.456556 5.380264 -14.799465
v 1.653504 5.380264 -15.719069
v 1.653504 -1.000000 -15.719069
v 1.456556 -1.000000 -15.719069
v 1.456556 5.380264 -15.719069
v 1.456556 5.380264 -15.518719
v 1.456556 -1.000000 -15.518719
v 5.977759 5.380264 -15.719069
v 5.977759 -1.000000 -15.719069
v 5.977759 -1.000000 -22.175257
v 6.224734 -1.000000 -22.175257
v 6.224734 5.380264 -22.175257
v 5.977759 5.380264 -22.175257
v 5.977759 5.380264 -21.967705
v 5.977759 -1.000000 -21.967705
v 8.954805 5.380264 -22.175257
v 8.954805 -1.000000 -22.175257
v 11.307311 5.380264 -22.175257
v 11.307311 -1.000000 -22.175257
v 12.529037 5.380264 -22.175257
v 12.529037 -1.000000 -22.175257
v 12.785781 5.380264 -22.175257
v 12.785781 -1.000000 -22.175257
v 15.312431 -1.000000 -22.175257
v 15.312431 5.380264 -22.175257
v 15.512213 -1.000000 -22.175257
v 15.512212 5.380264 -22.175257
v 20.039368 -1.000000 -22.175257
v 20.039368 5.380264 -22.175257
v 11.872504 5.380264 2.961772
v 11.872504 -1.000000 2.961772
v 12.978394 5.380264 2.961772
v 12.978394 -1.000000 2.961772
v 12.978394 -1.000000 2.829890
v 12.978394 5.380264 2.829890
v 12.854074 -1.000000 2.961772
v 12.854074 5.380264 2.961772
v 12.978394 5.380264 2.086240
v 12.978394 -1.000000 2.086240
v 20.995319 -1.000000 1.916651
v 20.995319 -1.000000 2.086240
v 20.995319 5.380264 2.086240
v 20.995319 5.380264 1.916651
v 20.822433 -1.000000 2.086240
v 20.822433 5.380264 2.086240
v 20.995319 -1.000000 0.459723
v 20.995319 5.380264 0.459723
v 21.771833 -1.000000 0.459723
v 21.771833 5.380264 0.459723
v 24.276211 -1.000000 0.459723
v 24.276211 5.380264 0.459723
v 25.770714 -1.000000 0.459723
v 25.770714 5.380264 0.459723
v 25.191763 -1.000000 0.459723
v 25.191763 5.380264 0.459723
v 24.856672 -1.000000 0.459723
v 24.856672 5.380264 0.459723
v 27.596331 -1.000000 0.459723
v 27.596331 5.380264 0.459723
v 28.637613 -1.000000 0.240986
v 28.637613 -1.000000 0.459723
v 28.637613 5.380264 0.240986
v 28.637613 5.380264 0.459723
v 28.377293 5.380264 0.459723
v 28.377293 -1.000000 0.459723
v 28.637613 -1.000000 -15.672507
v 28.637613 5.380264 -15.672507
v 23.365160 -1.000000 -22.168732
v 23.365160 5.380264 -22.168732
v 23.191608 -1.000000 -21.974709
v 25.862724 5.380264 -19.091467
v 25.862724 -1.000000 -19.091467
v 26.096434 5.380264 -18.803514
v 26.096434 -1.000000 -18.803514
v 28.637613 5.380264 -10.140794
v 28.637613 -1.000000 -10.140794
v 28.637613 -1.000000 -9.970149
v 28.637613 5.380264 -9.970149
v -0.075509 3.763348 0.075509
v -0.075509 3.763348 -0.075509
v 8.248977 3.763348 0.075509
v 8.370928 3.763348 2.961772
v 8.248977 3.763348 2.961772
v 8.248977 3.763348 2.829890
v 10.043932 3.763348 2.961772
v 0.102145 3.763348 0.075509
v -0.075509 3.763348 -11.727789
v 0.102145 3.763348 -11.727789
v -0.075509 3.763348 -11.531865
v 1.456556 3.763348 -11.727789
v 1.456556 3.763348 -12.305507
v 1.456556 3.763348 -14.799465
v 1.653504 3.763348 -15.719069
v 1.456556 3.763348 -15.719069
v 1.456556 3.763348 -15.518719
v 5.977759 3.763348 -15.719069
v 6.224734 3.763348 -22.175257
v 5.977759 3.763348 -22.175257
v 5.977759 3.763348 -21.967705
v 8.954805 3.763348 -22.175257
v 27.596331 3.763348 0.459723
v 28.637613 3.763348 0.459723
v 28.637613 3.763348 0.240986
v 28.377293 3.763348 0.459723
v 28.637613 3.763348 -15.672507
v 23.365160 3.763348 -22.168732
v 23.191608 3.763348 -21.974709
v 25.862724 3.763348 -19.091467
v 26.096434 3.763348 -18.803514
v 28.637613 3.763348 -10.140794
v 28.637613 3.763348 -9.970149
v 11.872504 3.763348 2.961772
v 12.978394 3.763348 2.961772
v 12.978394 3.763348 2.829890
v 12.854074 3.763348 2.961772
v 12.978394 3.763348 2.086240
v 20.995319 3.763348 2.086240
v 20.995319 3.763348 1.916651
v 20.822433 3.763348 2.086240
v 20.995319 3.763348 0.459723
v 21.771833 3.763348 0.459723
v 11.307311 3.763348 -22.175257
v 12.785781 3.763348 -22.175257
v 12.529037 3.763348 -22.175257
v 15.312431 3.763348 -22.175257
v 15.512213 3.763348 -22.175257
v 20.039368 3.763348 -22.175257
v 24.276211 3.763348 0.459723
v 25.770714 3.763348 0.459723
v 25.191763 3.763348 0.459723
v 24.856672 3.763348 0.459723
vn -1.0000 -0.0000 -0.0000
vn -0.0000 -0.0000 1.0000
vn -0.0000 -0.0000 -1.0000
vn 1.0000 -0.0000 -0.0000
vn 0.7764 -0.0000 -0.6302
vn 0.7765 -0.0000 -0.6302
vn -0.7453 -0.0000 -0.6667
vn 0.0020 -0.0000 -1.0000
vt 0.500000 0.000000
vt 0.542431 0.000000
vt 0.542431 0.250000
vt 0.500000 0.250000
vt 0.500000 0.994742
vt 0.542431 0.994742
vt 0.542431 1.000000
vt 0.500000 1.000000
vt 0.500000 0.753610
vt 0.375000 0.753610
vt 0.500000 0.750000
vt 0.542431 0.750000
vt 0.542431 0.753610
vt 0.375000 0.750000
vt 0.542431 0.250000
vt 0.542431 0.255258
vt 0.500000 0.255258
vt 0.515487 0.282202
vt 0.522657 0.295674
vt 0.542431 0.255258
vt 0.569954 0.255258
vt 0.571467 0.255258
vt 0.500000 0.750000
vt 0.500000 0.750000
vt 0.500000 0.750000
vt 0.500000 0.750000
vt 0.375000 0.750000
vt 0.375000 0.255258
vt 0.375000 0.250000
vt 0.375000 0.994742
vt 0.542431 0.750000
vt 0.375000 1.000000
vt 0.375000 0.000000
vt 0.375000 0.255258
vt 0.542431 0.750000
vt 0.542431 0.750000
vt 0.578691 0.750000
vt 0.554960 0.750000
vt 0.563073 0.750000
vt 0.377629 0.377629
vt 0.592076 0.750000
s 0
f 106/1/1 2/2/1 4/3/1 107/4/1
f 113/5/2 15/6/2 2/7/2 106/8/2
f 111/9/1 11/10/1 9/10/1 110/9/1
f 109/11/2 7/12/2 10/13/2 110/9/2
f 108/9/1 5/10/1 11/10/1 111/9/1
f 109/11/2 8/14/2 14/14/2 112/11/2
f 116/4/1 21/3/1 17/15/1 114/4/1
f 108/9/2 6/13/2 15/6/2 113/5/2
f 114/4/3 17/15/3 20/16/3 115/17/3
f 107/4/1 4/3/1 21/3/1 116/4/1
f 117/17/1 24/16/1 26/18/1 118/17/1
f 115/17/3 20/16/3 24/16/3 117/17/3
f 119/17/1 28/19/1 33/16/1 122/17/1
f 121/17/3 32/16/3 29/16/3 120/17/3
f 122/17/1 33/16/1 32/16/1 121/17/1
f 120/17/3 29/16/3 35/16/3 123/17/3
f 125/17/3 40/16/3 39/16/3 124/17/3
f 126/17/1 41/16/1 40/16/1 125/17/1
f 123/17/1 35/16/1 41/16/1 126/17/1
f 124/17/3 39/16/3 43/20/3 127/17/3
f 149/17/3 45/21/3 47/16/3 151/17/3
f 151/17/3 47/16/3 49/16/3 150/17/3
f 152/17/3 52/16/3 54/20/3 153/17/3
f 150/17/3 49/16/3 52/16/3 152/17/3
f 153/17/3 54/20/3 56/22/3 154/17/3
f 141/11/4 61/14/4 66/14/4 143/11/4
f 141/11/4 62/12/4 59/12/4 140/11/4
f 142/11/2 63/14/2 60/14/2 140/11/2
f 139/11/2 58/14/2 63/14/2 142/11/2
f 144/11/4 68/14/4 67/14/4 145/23/4
f 146/11/2 71/14/2 68/14/2 144/11/2
f 143/11/2 66/14/2 71/14/2 146/11/2
f 145/23/4 67/14/4 73/14/4 147/24/4
f 147/24/2 73/14/2 75/14/2 148/24/2
f 157/24/2 81/14/2 79/14/2 156/24/2
f 158/24/2 83/14/2 81/14/2 157/24/2
f 155/24/2 77/14/2 83/14/2 158/24/2
f 129/24/4 88/14/4 87/14/4 130/24/4
f 131/24/2 92/14/2 88/14/2 129/24/2
f 128/24/2 85/14/2 92/14/2 131/24/2
f 137/24/4 103/14/4 93/14/4 132/24/4
f 135/23/5 99/14/5 95/14/5 133/24/5
f 136/25/6 101/14/6 99/14/6 135/23/6
f 132/24/5 93/14/5 101/14/5 136/25/5
f 138/26/4 104/27/4 103/14/4 137/24/4
f 130/24/4 87/14/4 104/27/4 138/26/4
f 19/28/3 115/17/3 117/17/3 23/28/3
f 23/28/1 117/17/1 118/17/1 25/28/1
f 3/29/1 107/4/1 116/4/1 22/29/1
f 18/29/3 114/4/3 115/17/3 19/28/3
f 5/10/2 108/9/2 113/5/2 16/30/2
f 22/29/1 116/4/1 114/4/1 18/29/1
f 7/12/2 109/11/2 112/11/2 13/31/2
f 6/13/1 108/9/1 111/9/1 12/13/1
f 8/14/2 109/11/2 110/9/2 9/10/2
f 12/13/1 111/9/1 110/9/1 10/13/1
f 16/30/2 113/5/2 106/8/2 1/32/2
f 1/33/1 106/1/1 107/4/1 3/29/1
f 38/28/3 124/17/3 127/17/3 44/28/3
f 36/28/1 123/17/1 126/17/1 42/34/1
f 42/34/1 126/17/1 125/17/1 37/28/1
f 37/28/3 125/17/3 124/17/3 38/28/3
f 30/28/3 120/17/3 123/17/3 36/28/3
f 34/28/1 122/17/1 121/17/1 31/28/1
f 31/28/3 121/17/3 120/17/3 30/28/3
f 27/28/1 119/17/1 122/17/1 34/28/1
f 89/35/4 130/24/4 138/26/4 105/36/4
f 105/36/4 138/26/4 137/24/4 102/35/4
f 94/37/5 132/24/5 136/25/5 100/35/5
f 100/35/5 136/25/5 135/23/5 98/31/5
f 98/31/5 135/23/5 133/24/5 96/38/5
f 97/14/7 134/24/7 133/24/7 95/14/7
f 102/35/4 137/24/4 132/24/4 94/37/4
f 86/35/2 128/24/2 131/24/2 91/35/2
f 91/35/2 131/24/2 129/24/2 90/35/2
f 90/35/4 129/24/4 130/24/4 89/35/4
f 74/35/2 147/24/2 148/24/2 76/39/2
f 70/35/4 145/23/4 147/24/4 74/35/4
f 65/12/2 143/11/2 146/11/2 72/12/2
f 72/12/2 146/11/2 144/11/2 69/12/2
f 69/12/4 144/11/4 145/23/4 70/35/4
f 57/12/2 139/11/2 142/11/2 64/12/2
f 64/12/2 142/11/2 140/11/2 59/12/2
f 61/14/4 141/11/4 140/11/4 60/14/4
f 62/12/4 141/11/4 143/11/4 65/12/4
f 53/28/3 153/17/3 154/17/3 55/28/3
f 50/28/3 150/17/3 152/17/3 51/28/3
f 51/28/3 152/17/3 153/17/3 53/28/3
f 48/28/3 151/17/3 150/17/3 50/28/3
f 46/28/3 149/17/3 151/17/3 48/28/3
f 57/12/2 13/31/2 112/11/2 139/11/2
f 28/19/1 119/40/1 118/17/1 26/18/1
f 149/17/3 127/17/3 43/20/3 45/21/3
f 154/17/8 56/22/8 96/38/8 133/24/8
f 78/41/2 155/24/2 158/24/2 84/35/2
f 84/35/2 158/24/2 157/24/2 82/35/2
f 82/35/2 157/24/2 156/24/2 80/35/2
f 155/24/2 78/41/2 76/39/2 148/24/2
f 128/24/2 86/35/2 80/35/2 156/24/2
