# Blender 4.2.2 LTS
# www.blender.org
mtllib roof.mtl
o Plane
v 20.918331 5.859091 0.055252
v 12.998774 5.859091 2.995843
v 21.006599 5.859091 2.098451
v -0.218146 5.859091 0.130247
v 28.701797 5.334303 0.489681
v 28.701797 5.334303 0.055252
v -0.218146 5.334303 0.130247
v 8.231524 5.334303 2.995843
v 8.287288 5.334303 -22.228413
v 8.231523 5.334303 0.489681
v 8.231523 5.334303 0.130247
v 12.998774 5.334303 2.995843
v 12.945792 5.334303 -22.228413
v 12.945792 5.334303 0.489681
v 12.945792 5.334303 0.055252
v 8.231524 5.859091 2.995843
v 20.918331 5.334303 -22.228413
v 21.006599 5.334303 0.489681
v 20.918331 5.334303 0.055252
v 21.006599 5.859091 0.489681
v 8.231523 5.859091 0.130247
v 8.231524 5.334303 2.042154
v 12.998774 5.334303 2.098451
v 21.006599 5.334303 2.098451
v 5.872960 5.334303 -22.228413
v 28.701797 5.859091 0.055252
v 6.076549 5.334303 0.130247
v 20.918331 5.859091 -22.228413
v 12.945792 5.859091 0.055252
v 28.701797 5.334303 -15.659029
v 8.231524 5.859091 2.042154
v 8.287288 5.334303 -15.659029
v 12.945792 5.334303 -15.659029
v 20.918331 5.334303 -15.659029
v 5.872960 5.334303 -15.849592
v -0.218146 5.334303 -11.821406
v 28.701797 5.334303 -11.630843
v 8.287288 5.334303 -11.630843
v 12.945792 5.334303 -11.630843
v 20.918331 5.334303 -11.630843
v 6.076549 5.334303 -11.630843
v 12.998774 5.859091 2.098451
v 28.701797 5.859091 0.489681
v 1.579842 5.334303 0.130247
v 12.945792 5.859091 0.489681
v 12.945792 5.859091 -22.228413
v 1.376253 5.334303 -15.849592
v 1.376253 5.334303 -11.821406
v 8.231523 5.859091 0.489681
v 23.336739 5.334303 -22.228413
v 23.336739 5.334303 0.489681
v 23.336739 5.334303 0.055252
v 8.287288 5.859091 -22.228413
v 23.336739 5.334303 -15.659029
v 23.336739 5.334303 -11.630843
v 5.872960 5.859091 -22.228413
v 6.076549 5.859091 0.130247
v 28.701797 5.859091 -15.659029
v 8.287288 5.859091 -15.659029
v 12.945792 5.859091 -15.659029
v 20.918331 5.859091 -15.659029
v 5.872960 5.859091 -15.849592
v -0.218146 5.859091 -11.821406
v 28.701797 5.859091 -11.630843
v 8.287288 5.859091 -11.630843
v 12.945792 5.859091 -11.630843
v 20.918331 5.859091 -11.630843
v 6.076549 5.859091 -11.630843
v 1.579842 5.859091 0.130247
v 1.376253 5.859091 -15.849592
v 1.376253 5.859091 -11.821406
v 23.336739 5.859091 -22.228413
v 23.336739 5.859091 0.489681
v 23.336739 5.859091 0.055252
v 23.336739 5.859091 -15.659029
v 23.336739 5.859091 -11.630843
vn -0.0000 1.0000 -0.0000
vn -0.0000 -1.0000 -0.0000
vn -1.0000 -0.0000 -0.0000
vn -0.0000 -0.0000 1.0000
vn 1.0000 -0.0000 -0.0000
vn -0.0000 -0.0000 -1.0000
vn 0.7745 -0.0000 -0.6325
vt 0.451323 0.036530
vt 0.728953 0.036530
vt 0.728953 0.098422
vt 0.451323 0.098422
vt 0.813171 0.098422
vt 0.813171 0.115742
vt 1.000000 0.115741
vt 1.000000 0.098422
vt 0.212113 0.742221
vt 0.289098 0.742221
vt 0.289098 1.000000
vt 0.212113 1.000000
vt 0.055522 0.581629
vt 0.212113 0.581629
vt 0.055522 0.742221
vt 0.289098 0.098422
vt 0.289098 0.115742
vt 0.451323 0.115742
vt 0.289098 0.036530
vt 0.451323 1.000000
vt 0.451323 0.742221
vt 0.728953 0.115742
vt 0.728953 1.000000
vt 0.728953 0.742221
vt 0.289098 0.000000
vt 0.451323 0.000000
vt 0.289098 0.581629
vt 0.451323 0.581629
vt 0.728953 0.581629
vt 0.212113 0.115742
vt 0.813171 0.581629
vt 0.813171 0.742221
vt 1.000000 0.742221
vt 1.000000 0.581629
vt 0.055522 0.115742
vt 0.000000 0.115742
vt 0.000000 0.581629
vt 0.813171 1.000000
s 0
f 42/1/1 3/2/1 20/3/1 45/4/1
f 51/5/2 52/6/2 6/7/2 5/8/2
f 62/9/1 59/10/1 53/11/1 56/12/1
f 71/13/1 68/14/1 62/9/1 70/15/1
f 35/9/2 25/12/2 9/11/2 32/10/2
f 10/16/2 11/17/2 15/18/2 14/4/2
f 22/19/2 10/16/2 14/4/2 23/1/2
f 32/10/2 9/11/2 13/20/2 33/21/2
f 14/4/2 15/18/2 19/22/2 18/3/2
f 23/1/2 14/4/2 18/3/2 24/2/2
f 33/21/2 13/20/2 17/23/2 34/24/2
f 31/19/1 42/1/1 45/4/1 49/16/1
f 8/25/2 22/19/2 23/1/2 12/26/2
f 65/27/1 66/28/1 60/21/1 59/10/1
f 60/21/1 61/24/1 28/23/1 46/20/1
f 66/28/1 67/29/1 61/24/1 60/21/1
f 57/30/1 21/17/1 65/27/1 68/14/1
f 16/25/1 2/26/1 42/1/1 31/19/1
f 73/5/1 43/8/1 26/7/1 74/6/1
f 48/13/2 47/15/2 35/9/2 41/14/2
f 39/28/2 33/21/2 34/24/2 40/29/2
f 38/27/2 32/10/2 33/21/2 39/28/2
f 41/14/2 35/9/2 32/10/2 38/27/2
f 55/31/2 54/32/2 30/33/2 37/34/2
f 52/6/2 55/31/2 37/34/2 6/7/2
f 27/30/2 41/14/2 38/27/2 11/17/2
f 11/17/2 38/27/2 39/28/2 15/18/2
f 15/18/2 39/28/2 40/29/2 19/22/2
f 44/35/2 48/13/2 41/14/2 27/30/2
f 7/36/2 36/37/2 48/13/2 44/35/2
f 74/6/1 26/7/1 64/34/1 76/31/1
f 49/16/1 45/4/1 29/18/1 21/17/1
f 68/14/1 65/27/1 59/10/1 62/9/1
f 21/17/1 29/18/1 66/28/1 65/27/1
f 76/31/1 64/34/1 58/33/1 75/32/1
f 19/22/2 40/29/2 55/31/2 52/6/2
f 40/29/2 34/24/2 54/32/2 55/31/2
f 45/4/1 20/3/1 1/22/1 29/18/1
f 18/3/2 19/22/2 52/6/2 51/5/2
f 59/10/1 60/21/1 46/20/1 53/11/1
f 34/24/2 17/23/2 50/38/2 54/32/2
f 54/32/2 50/38/2 30/33/2
f 29/18/1 1/22/1 67/29/1 66/28/1
f 69/35/1 57/30/1 68/14/1 71/13/1
f 4/36/1 69/35/1 71/13/1 63/37/1
f 1/22/1 74/6/1 76/31/1 67/29/1
f 67/29/1 76/31/1 75/32/1 61/24/1
f 20/3/1 73/5/1 74/6/1 1/22/1
f 61/24/1 75/32/1 72/38/1 28/23/1
f 75/32/1 58/33/1 72/38/1
f 10/16/3 22/19/3 31/19/3 49/16/3
f 36/37/3 7/36/3 4/36/3 63/37/3
f 25/12/3 35/9/3 62/9/3 56/12/3
f 7/36/4 44/35/4 69/35/4 4/36/4
f 6/7/5 37/34/5 64/34/5 26/7/5
f 35/9/6 47/15/6 70/15/6 62/9/6
f 8/25/4 12/26/4 2/26/4 16/25/4
f 50/38/6 17/23/6 28/23/6 72/38/6
f 9/11/6 25/12/6 56/12/6 53/11/6
f 17/23/6 13/20/6 46/20/6 28/23/6
f 48/13/6 36/37/6 63/37/6 71/13/6
f 22/19/3 8/25/3 16/25/3 31/19/3
f 51/5/4 5/8/4 43/8/4 73/5/4
f 13/20/6 9/11/6 53/11/6 46/20/6
f 18/3/4 51/5/4 73/5/4 20/3/4
f 12/26/5 23/1/5 42/1/5 2/26/5
f 37/34/5 30/33/5 58/33/5 64/34/5
f 47/15/3 48/13/3 71/13/3 70/15/3
f 27/30/4 11/17/4 21/17/4 57/30/4
f 44/35/4 27/30/4 57/30/4 69/35/4
f 23/1/4 24/2/4 3/2/4 42/1/4
f 11/17/3 10/16/3 49/16/3 21/17/3
f 24/2/5 18/3/5 20/3/5 3/2/5
f 5/8/5 6/7/5 26/7/5 43/8/5
f 30/33/7 50/38/7 72/38/7 58/33/7
